<?xml version="1.0" encoding="UTF-8"?>
<svg width="240" height="240" viewBox="0 0 240 240" fill="none" xmlns="http://www.w3.org/2000/svg" aria-labelledby="title desc" role="img">
  <title id="title">Lingo Bot</title>
  <desc id="desc">Animated modern avatar with rotating ring, blinking eyes and floating language glyphs.</desc>
  <defs>
    <radialGradient id="lingoFace" cx="0.5" cy="0.5" r="0.55">
      <stop offset="0%" stop-color="#FFE08A" />
      <stop offset="55%" stop-color="#F5B533" />
      <stop offset="100%" stop-color="#B46307" />
    </radialGradient>
    <linearGradient id="outerRing" x1="0" y1="0" x2="1" y2="1">
      <stop offset="0%" stop-color="#FFDD55" />
      <stop offset="50%" stop-color="#F59E0B" />
      <stop offset="100%" stop-color="#B45309" />
    </linearGradient>
    <filter id="softGlow" x="-50%" y="-50%" width="200%" height="200%" color-interpolation-filters="sRGB">
      <feGaussianBlur in="SourceGraphic" stdDeviation="6" result="blur" />
      <feColorMatrix in="blur" type="matrix" values="0 0 0 0 1  0 0 0 0 0.75  0 0 0 0 0.25  0 0 0 0.6 0" result="col" />
      <feBlend in="SourceGraphic" in2="col" mode="screen" />
    </filter>
    <filter id="innerShadow" x="-50%" y="-50%" width="200%" height="200%">
      <feDropShadow dx="0" dy="4" stdDeviation="6" flood-color="#9A5B08" flood-opacity="0.55" />
    </filter>
    <path id="floatPath" d="M40 40 C120 -10 180 10 200 40 C220 70 180 110 120 120 C60 130 40 90 60 70 Z" />
    <style><![CDATA[
  .ring { stroke-dasharray: 12 14; }
  .face-eye { animation: blink 6.5s ease-in-out infinite; transform-origin: center; }
      .mouth { animation: talk 3.8s ease-in-out infinite; transform-origin: 120px 150px; }
      .float { animation: drift 7s ease-in-out infinite; }
      .float:nth-child(2) { animation-delay: 1.4s; }
      .float:nth-child(3) { animation-delay: 2.8s; }
      .glyph { animation: bob 4.5s ease-in-out infinite; }
      .glyph:nth-child(2) { animation-delay: 1s; }
      .glyph:nth-child(3) { animation-delay: 2s; }
      .glyph:nth-child(4) { animation-delay: 3s; }
      .halo { animation: pulse 5s ease-in-out infinite; }
  /* spin & hue animations removed to keep ring static */
    @keyframes blink { 0%,6%,94%,100% { clip-path:inset(0% 0% 0% 0%);} 3%,4% { clip-path:inset(45% 0% 45% 0%);} }
      @keyframes talk { 0%,100% { transform: scale(1);} 50% { transform: scale(1.07);} }
      @keyframes drift { 0%,100% { transform: translateY(0);} 50% { transform: translateY(-18px);} }
      @keyframes bob { 0%,100% { transform: translateY(0);} 50% { transform: translateY(-8px);} }
      @keyframes pulse { 0%,100% { opacity:0.25; transform: scale(1);} 50% {opacity:0.45; transform: scale(1.08);} }
    ]]></style>
  </defs>
  <!-- Outer ring removed -->
  <!-- Halo -->
  <circle cx="120" cy="120" r="100" fill="#F59E0B" opacity="0.18" class="halo" />
  <!-- Face -->
  <circle cx="120" cy="120" r="92" fill="url(#lingoFace)" filter="url(#innerShadow)" />
  <!-- Eyes -->
  <g>
  <g class="face-eye left">
      <circle cx="85" cy="108" r="17" fill="#FFF" />
      <circle cx="85" cy="108" r="7" fill="#7A3A00" />
    </g>
  <g class="face-eye right">
      <circle cx="155" cy="108" r="17" fill="#FFF" />
      <circle cx="155" cy="108" r="7" fill="#7A3A00" />
    </g>
  </g>
  <!-- Brows -->
  <path d="M66 78 C82 70 98 70 110 78" stroke="#FFE8BD" stroke-width="7" stroke-linecap="round" />
  <path d="M130 78 C146 70 162 70 174 78" stroke="#FFE8BD" stroke-width="7" stroke-linecap="round" />
  <!-- Mouth -->
  <path class="mouth" d="M80 160 Q120 190 160 160" stroke="#FFE8BD" stroke-width="7" stroke-linecap="round" fill="none" />
  <!-- Forehead Globe (bobbing) -->
  <g class="glyph" transform="translate(0,-6)">
    <circle cx="120" cy="70" r="18" fill="#FCD34D" stroke="#92400E" stroke-width="2" />
    <path d="M108 70 H132 M120 58 V82 M108 64 C108 64 114 78 120 78 C126 78 132 64 132 64 M108 76 C108 76 114 62 120 62 C126 62 132 76 132 76" stroke="#92400E" stroke-width="2" fill="none" stroke-linecap="round" />
  </g>
  <!-- Translation bubbles -->
  <g class="float" style="animation-delay:.3s">
    <path d="M58 122 L72 108 H96 L110 122 L96 136 H72 Z" fill="#FCD34D" stroke="#8B4A05" stroke-width="2" stroke-linejoin="round" />
    <text x="78" y="123" font-family="Inter, Arial" font-size="14" font-weight="600" fill="#7A3A00">Hi</text>
  </g>
  <g class="float" style="animation-delay:1.1s">
    <path d="M130 122 L144 108 H168 L182 122 L168 136 H144 Z" fill="#FCD34D" stroke="#8B4A05" stroke-width="2" stroke-linejoin="round" />
    <text x="148" y="123" font-family="Inter, Arial" font-size="14" font-weight="600" fill="#7A3A00">Hola</text>
  </g>
  <!-- Floating language glyphs around path -->
  <g font-family="Inter, Arial" font-size="20" fill="#FFE8BD" font-weight="600">
    <text class="glyph" x="70" y="54">A</text>
    <text class="glyph" x="96" y="42">あ</text>
    <text class="glyph" x="132" y="42">字</text>
    <text class="glyph" x="164" y="54">إ</text>
  </g>
  <!-- Base plate -->
  <rect x="70" y="190" width="100" height="14" rx="7" fill="#FBBF24" opacity="0.5" />
</svg>
