<?xml version="1.0" encoding="UTF-8"?>
<svg width="240" height="240" viewBox="0 0 240 240" fill="none" xmlns="http://www.w3.org/2000/svg">
  <circle cx="120" cy="120" r="100" fill="url(#faceGradient)"/>
  <circle cx="120" cy="120" r="120" fill="url(#patternFitzy)" opacity="0.25" />

  <!-- Eyes -->
  <circle cx="90" cy="100" r="10" fill="white"/>
  <circle cx="150" cy="100" r="10" fill="white"/>
  <circle cx="90" cy="100" r="5" fill="#10B981"/>
  <circle cx="150" cy="100" r="5" fill="#10B981"/>

  <!-- Smile -->
  <path d="M80 140C100 160 140 160 160 140" stroke="white" stroke-width="4" stroke-linecap="round"/>

  <!-- Sweatband -->
  <rect x="60" y="70" width="120" height="10" rx="5" fill="#6EE7B7"/>

  <!-- Dumbbells adjusted -->
  <rect x="44" y="178" width="20" height="10" rx="2" fill="#10B981"/>
  <rect x="176" y="178" width="20" height="10" rx="2" fill="#10B981"/>
  <rect x="49" y="173" width="10" height="20" rx="2" fill="#10B981"/>
  <rect x="181" y="173" width="10" height="20" rx="2" fill="#10B981"/>
  <defs>
    <radialGradient id="faceGradient" cx="50%" cy="50%" r="50%" fx="50%" fy="50%">
      <stop offset="0%" stop-color="#34D399"/>
      <stop offset="100%" stop-color="#059669"/>
    </radialGradient>
    <pattern id="patternFitzy" x="0" y="0" width="20" height="20" patternUnits="userSpaceOnUse">
      <circle cx="10" cy="10" r="1" fill="#6EE7B7" />
    </pattern>
  </defs>
</svg>
