<?xml version="1.0" encoding="UTF-8"?>
<svg width="240" height="240" viewBox="0 0 240 240" fill="none" xmlns="http://www.w3.org/2000/svg" aria-labelledby="ptitle pdesc" role="img">
  <title id="ptitle">Pitchy Bot</title>
  <desc id="pdesc">Animated presenter avatar with rotating ring, growth charts, blinking eyes and pulsing ideas.</desc>
  <defs>
    <radialGradient id="pitchyFace" cx="0.5" cy="0.5" r="0.55">
      <stop offset="0%" stop-color="#34D399" />
      <stop offset="55%" stop-color="#10B981" />
      <stop offset="100%" stop-color="#065F46" />
    </radialGradient>
    <linearGradient id="pitchyRing" x1="0" y1="0" x2="1" y2="1">
      <stop offset="0%" stop-color="#A7F3D0" />
      <stop offset="50%" stop-color="#34D399" />
      <stop offset="100%" stop-color="#047857" />
    </linearGradient>
    <filter id="pitchyGlow" x="-50%" y="-50%" width="200%" height="200%">
      <feGaussianBlur in="SourceGraphic" stdDeviation="5" result="b" />
      <feColorMatrix in="b" type="matrix" values="0 0 0 0 0.6  0 0 0 0 1  0 0 0 0 0.75  0 0 0 0.55 0" result="c" />
      <feBlend in="SourceGraphic" in2="c" mode="screen" />
    </filter>
    <filter id="pitchyShadow" x="-50%" y="-50%" width="200%" height="200%">
      <feDropShadow dx="0" dy="4" stdDeviation="6" flood-color="#065F46" flood-opacity="0.55" />
    </filter>
    <pattern id="pitchyDots" width="16" height="16" patternUnits="userSpaceOnUse">
      <circle cx="4" cy="4" r="1" fill="#A7F3D0" />
      <circle cx="12" cy="12" r="1" fill="#6EE7B7" />
    </pattern>
    <style><![CDATA[
  .pi-ring { stroke-dasharray: 12 18; }
      .pi-eye { animation: pi-blink 7s ease-in-out infinite; }
      .pi-mouth { animation: pi-talk 4s ease-in-out infinite; }
      .pi-bulb { animation: pi-pulse 5s ease-in-out infinite; transform-origin:120px 54px; }
      .pi-chart { animation: pi-rise 6s ease-in-out infinite; }
      .pi-bubble { animation: pi-bob 5s ease-in-out infinite; }
      .pi-bubble:nth-child(2) { animation-delay:1.5s; }
      .pi-bubble:nth-child(3) { animation-delay:3s; }
      .pi-halo { animation: pi-halo 6s ease-in-out infinite; }
  /* pi-spin & pi-hue removed: ring static */
      @keyframes pi-blink { 0%,6%,94%,100% { transform: scaleY(1);} 3%,4% { transform: scaleY(.1);} }
      @keyframes pi-talk { 0%,100% { transform: scale(1);} 50% { transform: scale(1.07);} }
      @keyframes pi-pulse { 0%,100% { transform: scale(1);} 50% { transform: scale(1.15);} }
      @keyframes pi-rise { 0%,100% { transform: translateY(0);} 50% { transform: translateY(-14px);} }
      @keyframes pi-bob { 0%,100% { transform: translateY(0);} 50% { transform: translateY(-10px);} }
      @keyframes pi-halo { 0%,100% { opacity:.25; transform:scale(1);} 50% { opacity:.45; transform:scale(1.08);} }
    ]]></style>
  </defs>
  <!-- Outer ring removed -->
  <circle cx="120" cy="120" r="100" fill="#10B981" opacity="0.18" class="pi-halo" />
  <circle cx="120" cy="120" r="92" fill="url(#pitchyFace)" filter="url(#pitchyShadow)" />
  <circle cx="120" cy="120" r="92" fill="url(#pitchyDots)" opacity="0.1" />
  <!-- Eyes -->
  <g class="pi-eye">
    <circle cx="90" cy="110" r="15" fill="#FFF" />
    <circle cx="90" cy="110" r="6" fill="#064E3B" />
  </g>
  <g class="pi-eye" style="animation-delay:1.5s">
    <circle cx="150" cy="110" r="15" fill="#FFF" />
    <circle cx="150" cy="110" r="6" fill="#064E3B" />
  </g>
  <!-- Brows -->
  <path d="M74 86 C84 80 96 80 102 86" stroke="#A7F3D0" stroke-width="7" stroke-linecap="round" />
  <path d="M138 86 C148 80 160 80 166 86" stroke="#A7F3D0" stroke-width="7" stroke-linecap="round" />
  <!-- Mouth -->
  <path class="pi-mouth" d="M84 158 Q120 184 156 158" stroke="#A7F3D0" stroke-width="7" stroke-linecap="round" fill="none" />
  <!-- Bow tie -->
  <g class="pi-bubble">
    <path d="M100 135 L120 140 L140 135 L120 130 Z" fill="#34D399" />
    <circle cx="120" cy="135" r="6" fill="#047857" />
  </g>
  <!-- Lightbulb -->
  <g class="pi-bulb">
    <path d="M120 42 C108 42 103 54 110 66 C114 71 126 71 130 66 C137 54 132 42 120 42 Z" fill="#34D399" />
    <rect x="114" y="66" width="12" height="6" rx="2" fill="#065F46" />
  </g>
  <!-- Charts floating -->
  <g stroke="#D1FAE5" stroke-width="2" stroke-linecap="round" class="pi-chart">
    <polyline points="52,78 66,72 80,74 92,68" fill="none" />
    <polyline points="160,70 170,60 182,54 194,60 204,50" fill="none" />
  </g>
  <!-- Speech bubbles -->
  <g font-family="Inter, Arial" font-size="13" font-weight="600" fill="#047857" text-anchor="middle">
    <g class="pi-bubble" transform="translate(0,0)">
      <rect x="52" y="160" width="46" height="26" rx="8" fill="#D1FAE5" />
      <text x="75" y="177">Pitch</text>
    </g>
    <g class="pi-bubble" style="animation-delay:2.5s" transform="translate(0,0)">
      <rect x="142" y="160" width="52" height="26" rx="8" fill="#D1FAE5" />
      <text x="168" y="177">Idea</text>
    </g>
  </g>
  <rect x="70" y="194" width="100" height="14" rx="7" fill="#34D399" opacity="0.35" />
</svg>
