<?xml version="1.0" encoding="UTF-8" standalone="no"?>
<svg width="240" height="240" viewBox="0 0 240 240" fill="none" xmlns="http://www.w3.org/2000/svg">
  <!-- Unified base -->
  <circle cx="120" cy="120" r="100" fill="url(#gradient-face-reply)" />
  <circle cx="120" cy="120" r="120" fill="url(#patternReply)" opacity="0.25" />

  <!-- Eyes -->
  <circle cx="90" cy="100" r="14" fill="white" />
  <circle cx="150" cy="100" r="14" fill="white" />
  <circle cx="90" cy="100" r="7" fill="#0C4A6E" />
  <circle cx="150" cy="100" r="7" fill="#0C4A6E" />
  <circle cx="93" cy="97" r="2" fill="white" />
  <circle cx="153" cy="97" r="2" fill="white" />

  <!-- Eyebrows -->
  <path d="M76 84C85 78 95 82 102 86" stroke="#0C4A6E" stroke-width="5" stroke-linecap="round" />
  <path d="M164 84C155 78 145 82 138 86" stroke="#0C4A6E" stroke-width="5" stroke-linecap="round" />

  <!-- Smile -->
  <path d="M95 148C108 158 132 158 145 148" stroke="#0C4A6E" stroke-width="5" stroke-linecap="round" />

  <!-- Speech bubbles simplified -->
  <g opacity="0.9">
    <path d="M58 72C50 72 50 80 58 84L72 88V80C82 76 82 66 72 66H58V72Z" fill="#BAE6FD" stroke="#0369A1" stroke-width="1.5" />
    <path d="M182 72C190 72 190 80 182 84L168 88V80C158 76 158 66 168 66H182V72Z" fill="#BAE6FD" stroke="#0369A1" stroke-width="1.5" />
  </g>

  <!-- Forehead icon -->
  <path d="M120 58C112 58 108 66 112 72C116 76 124 76 128 72C132 66 128 58 120 58Z" fill="#7DD3FC" />
  <circle cx="120" cy="50" r="6" fill="#7DD3FC" />

  <!-- Reply arrows -->
  <g stroke="#0EA5E9" stroke-width="3" stroke-linecap="round">
    <path d="M120 170C102 170 97 165 92 160" />
    <path d="M92 160L97 150" />
    <path d="M92 160L87 150" />
  </g>

  <defs>
    <linearGradient id="gradient-face-reply" x1="60" y1="60" x2="180" y2="180" gradientUnits="userSpaceOnUse">
      <stop offset="0%" stop-color="#0EA5E9" />
      <stop offset="100%" stop-color="#0369A1" />
    </linearGradient>
    <pattern id="patternReply" x="0" y="0" width="20" height="20" patternUnits="userSpaceOnUse">
      <circle cx="10" cy="10" r="1" fill="#BAE6FD" />
    </pattern>
  </defs>
</svg>
