<svg width="240" height="240" viewBox="0 0 240 240" fill="none" xmlns="http://www.w3.org/2000/svg">
  <!-- Face background with gradient -->
  <circle cx="120" cy="120" r="100" fill="url(#globeGradient)"/>

  <!-- Latitude and Longitude lines -->
  <path d="M120 20C160 20 200 60 200 120C200 180 160 220 120 220C80 220 40 180 40 120C40 60 80 20 120 20Z" stroke="white" stroke-width="2"/>
  <path d="M40 120C40 100 60 80 120 80C180 80 200 100 200 120C200 140 180 160 120 160C60 160 40 140 40 120Z" stroke="white" stroke-width="2"/>

  <!-- Communication icons -->
  <rect x="90" y="90" width="20" height="10" rx="2" fill="white"/>
  <rect x="130" y="90" width="20" height="10" rx="2" fill="white"/>
  <path d="M110 140C115 145 125 145 130 140" stroke="white" stroke-width="2" stroke-linecap="round"/>

  <!-- News symbol -->
  <rect x="100" y="160" width="40" height="20" rx="2" fill="#6a0dad"/>
  <line x1="105" y1="165" x2="135" y2="165" stroke="white" stroke-width="2"/>
  <line x1="105" y1="170" x2="135" y2="170" stroke="white" stroke-width="2"/>

  <!-- Decorative elements -->
  <circle cx="60" cy="60" r="5" fill="white" opacity="0.8" />
  <circle cx="180" cy="60" r="5" fill="white" opacity="0.8" />

  <!-- Gradients -->
  <defs>
    <linearGradient id="globeGradient" x1="0" y1="0" x2="1" y2="1">
      <stop offset="0%" stop-color="#6a0dad" /> <!-- Violet -->
      <stop offset="100%" stop-color="#ff00ff" /> <!-- Magenta -->
    </linearGradient>
  </defs>
</svg>
