<svg width="240" height="240" viewBox="0 0 240 240" fill="none" xmlns="http://www.w3.org/2000/svg">
  <!-- Lingo-inspired unified base for Talko -->
  <circle cx="120" cy="120" r="100" fill="url(#talko-face)" />
  <!-- Outer subtle pattern ring -->
  <circle cx="120" cy="120" r="120" fill="url(#bgPatternTalko)" opacity="0.22" />

  <!-- Eyes -->
  <circle cx="90" cy="100" r="14" fill="white" />
  <circle cx="150" cy="100" r="14" fill="white" />
  <circle cx="90" cy="100" r="7" fill="#581c87" />
  <circle cx="150" cy="100" r="7" fill="#581c87" />
  <circle cx="93" cy="97" r="2" fill="white" />
  <circle cx="153" cy="97" r="2" fill="white" />

  <!-- Eyebrows -->
  <path d="M76 84C86 78 96 80 102 84" stroke="#581c87" stroke-width="5" stroke-linecap="round" />
  <path d="M164 84C154 78 144 80 138 84" stroke="#581c87" stroke-width="5" stroke-linecap="round" />

  <!-- Smile -->
  <path d="M100 148C110 156 130 156 140 148" stroke="#581c87" stroke-width="5" stroke-linecap="round" />

  <!-- Dialogue bubbles minimal -->
  <g opacity="0.85">
    <rect x="64" y="66" width="42" height="26" rx="7" stroke="#f5d0fe" stroke-width="2" fill="none" />
    <circle cx="77" cy="79" r="3" fill="#f5d0fe" />
    <circle cx="85" cy="79" r="3" fill="#f5d0fe" />
    <circle cx="93" cy="79" r="3" fill="#f5d0fe" />
    <rect x="134" y="66" width="42" height="26" rx="7" stroke="#f5d0fe" stroke-width="2" fill="none" />
    <circle cx="147" cy="79" r="3" fill="#f5d0fe" />
    <circle cx="155" cy="79" r="3" fill="#f5d0fe" />
    <circle cx="163" cy="79" r="3" fill="#f5d0fe" />
  </g>

  <!-- Info ticker -->
  <rect x="95" y="164" width="50" height="22" rx="7" fill="#7e22ce" stroke="#f5d0fe" stroke-width="2" />
  <path d="M102 175h20" stroke="#f5d0fe" stroke-width="2" stroke-linecap="round" />
  <path d="M124 175h8" stroke="#f5d0fe" stroke-width="2" stroke-linecap="round" opacity="0.65" />
  <path d="M135 175h4" stroke="#f5d0fe" stroke-width="2" stroke-linecap="round" opacity="0.4" />

  <!-- Signal waves -->
  <path d="M120 54c16 0 30 6 42 18" stroke="#f5d0fe" stroke-width="3" stroke-linecap="round" stroke-opacity="0.55" />
  <path d="M120 46c22 0 40 8 56 24" stroke="#f5d0fe" stroke-width="3" stroke-linecap="round" stroke-opacity="0.28" />

  <!-- Blush -->
  <circle cx="78" cy="132" r="14" fill="#f0abfc" opacity="0.18" />
  <circle cx="162" cy="132" r="14" fill="#f0abfc" opacity="0.18" />

  <!-- Subtle highlight -->
  <ellipse cx="120" cy="112" rx="70" ry="58" fill="#ffffff" opacity="0.055" />

  <defs>
    <linearGradient id="talko-face" x1="60" y1="60" x2="180" y2="180" gradientUnits="userSpaceOnUse">
      <stop offset="0%" stop-color="#c026d3" />
      <stop offset="100%" stop-color="#701a75" />
    </linearGradient>
    <pattern id="bgPatternTalko" x="0" y="0" width="20" height="20" patternUnits="userSpaceOnUse">
      <circle cx="10" cy="10" r="1" fill="#f5d0fe" />
    </pattern>
  </defs>
</svg>
